<svg width="22" height="24" viewBox="0 0 22 24" fill="none" xmlns="http://www.w3.org/2000/svg">
<path fill-rule="evenodd" clip-rule="evenodd" d="M3.45883 5.25998C9.86637 3.65134 17.8325 3.74996 19.6735 5.84645C21.5146 7.94293 21.4766 14.9531 19.3246 16.8766C17.1737 18.8001 7.83276 18.983 4.8735 16.8766C1.74703 14.6499 3.56108 7.80032 3.45883 3.65134C3.52018 1.32964 1 0.953116 1 0.953116" fill="white"/>
<path d="M3.45883 5.25998C9.86637 3.65134 17.8325 3.74996 19.6735 5.84645C21.5146 7.94293 21.4766 14.9531 19.3246 16.8766C17.1737 18.8001 7.83276 18.983 4.8735 16.8766C1.74703 14.6499 3.56108 7.80032 3.45883 3.65134C3.52018 1.32964 1 0.953116 1 0.953116" stroke="#E6E6E6" stroke-width="1.5" stroke-linecap="round" stroke-linejoin="round"/>
<path d="M13.6382 10.4199H16.974" stroke="#E6E6E6" stroke-width="1.5" stroke-linecap="round" stroke-linejoin="round"/>
<path fill-rule="evenodd" clip-rule="evenodd" d="M5.34726 21.7369C5.70814 21.7369 6.00166 22.0304 6.00166 22.3913C6.00166 22.7534 5.70814 23.0469 5.34726 23.0469C4.98517 23.0469 4.69165 22.7534 4.69165 22.3913C4.69165 22.0304 4.98517 21.7369 5.34726 21.7369Z" fill="white" stroke="#E6E6E6" stroke-width="1.5" stroke-linecap="round" stroke-linejoin="round"/>
<path fill-rule="evenodd" clip-rule="evenodd" d="M17.7755 21.7369C18.1376 21.7369 18.4311 22.0304 18.4311 22.3913C18.4311 22.7534 18.1376 23.0469 17.7755 23.0469C17.4146 23.0469 17.1211 22.7534 17.1211 22.3913C17.1211 22.0304 17.4146 21.7369 17.7755 21.7369Z" fill="white" stroke="#E6E6E6" stroke-width="1.5" stroke-linecap="round" stroke-linejoin="round"/>
</svg>
